# File created by Blade
# Date/Time:  Tue Sep 30 19:36:22 2014
#---------------------------------------------------------
:version 1.10
:name HOM
:units
  mass 1.0
  length 1.000000
  angle deg
:documentation
     Acclaim Skeleton File
:root
   axis xyz
   order TX TY TZ RX RY RZ
   position 0.000000 0.000000 0.000000
   orientation 0 0 0
:bonedata
   begin
      id 1
      name Spine_dum
      direction 0.000000 1.000000 0.000000
      length 3.241213
      axis 0.0 0.0 0.0 xyz
   end
   begin
      id 2
      name LeftUpLeg_dum
      direction 1.000000 0.000000 0.000000
      length 3.434019
      axis 0.0 0.0 0.0 xyz
   end
   begin
      id 3
      name RightUpLeg_dum
      direction -1.000000 0.000000 0.000000
      length 3.434019
      axis 0.0 0.0 0.0 xyz
   end
   begin
      id 4
      name Spine
      direction 0.000000 1.000000 0.000000
      length 0.000000
      axis 0.0 0.0 0.0 xyz
      dof rx ry rz
   end
   begin
      id 5
      name Spine_dum1
      direction 0.000000 1.000000 0.000000
      length 18.382958
      axis 0.0 0.0 0.0 xyz
   end
   begin
      id 6
      name Spine_dum2
      direction 0.000000 1.000000 0.000000
      length 12.828261
      axis 0.0 0.0 0.0 xyz
   end
   begin
      id 7
      name Spine_dum3
      direction 0.000000 1.000000 0.000000
      length 12.828261
      axis 0.0 0.0 0.0 xyz
   end
   begin
      id 8
      name Head
      direction 0.000000 1.000000 0.000000
      length 4.527550
      axis 0.0 0.0 0.0 xyz
      dof rx ry rz
   end
   begin
      id 9
      name LeftShoulder
      direction 1.000000 0.000000 0.000000
      length 7.748055
      axis 0.0 0.0 -90.0 xyz
      dof rx ry rz
   end
   begin
      id 10
      name LeftArm
      direction 1.000000 0.000000 0.000000
      length 10.635614
      axis 0.0 0.0 -90.0 xyz
      dof rx ry rz
   end
   begin
      id 11
      name LeftForeArm
      direction 1.000000 0.000000 0.000000
      length 8.346755
      axis 0.0 0.0 -90.0 xyz
      dof ry rz rx
   end
   begin
      id 12
      name LeftHand
      direction 0.000000 0.000000 0.000000
      length 0.000000
      axis 0.0 0.0 -90.0 xyz
      dof rx ry rz
   end
   begin
      id 13
      name LeftHand_dum1
      direction 0.000000 0.000000 0.000000
      length 0.000000
      axis 0.0 0.0 -90.0 xyz
   end
   begin
      id 14
      name LeftHand_dum2
      direction 1.000000 0.000000 0.000000
      length 3.937000
      axis 0.0 0.0 -90.0 xyz
   end
   begin
      id 15
      name LeftHandThumb1
      direction 0.000000 0.000000 1.000000
      length 3.937000
      axis 0.0 0.0 -90.0 xyz
      dof rx rz ry
   end
   begin
      id 16
      name RightShoulder
      direction -1.000000 0.000000 0.000000
      length 7.748055
      axis 0.0 0.0 90.0 xyz
      dof rx ry rz
   end
   begin
      id 17
      name RightArm
      direction -1.000000 0.000000 0.000000
      length 10.635614
      axis 0.0 0.0 90.0 xyz
      dof rx ry rz
   end
   begin
      id 18
      name RightForeArm
      direction -1.000000 0.000000 0.000000
      length 8.346755
      axis 0.0 0.0 90.0 xyz
      dof ry rz rx
   end
   begin
      id 19
      name RightHand
      direction 0.000000 0.000000 0.000000
      length 0.000000
      axis 0.0 0.0 90.0 xyz
      dof rx ry rz
   end
   begin
      id 20
      name RightHand_dum1
      direction 0.000000 0.000000 0.000000
      length 0.000000
      axis 0.0 0.0 90.0 xyz
   end
   begin
      id 21
      name RightHand_dum2
      direction -1.000000 0.000000 0.000000
      length 3.937000
      axis 0.0 0.0 90.0 xyz
   end
   begin
      id 22
      name RightHandThumb1
      direction 0.000000 0.000000 1.000000
      length 3.937000
      axis 0.0 0.0 90.0 xyz
      dof rx rz ry
   end
   begin
      id 23
      name LeftUpLeg
      direction 0.000000 -1.000000 0.000000
      length 15.713025
      axis 0.0 0.0 0.0 xyz
      dof rx ry rz
   end
   begin
      id 24
      name LeftLeg
      direction 0.000000 -1.000000 0.000000
      length 14.435119
      axis 0.0 0.0 0.0 xyz
      dof rx ry rz
   end
   begin
      id 25
      name LeftFoot
      direction 0.000000 -0.258819 0.965926
      length 4.938895
      axis 15.0 0.0 0.0 xyz
      dof rx ry rz
   end
   begin
      id 26
      name LeftToeBase
      direction 0.000000 0.000000 1.000000
      length 2.952750
      axis 0.0 0.0 0.0 xyz
      dof rx ry rz
   end
   begin
      id 27
      name RightUpLeg
      direction 0.000000 -1.000000 0.000000
      length 15.713025
      axis 0.0 0.0 0.0 xyz
      dof rx ry rz
   end
   begin
      id 28
      name RightLeg
      direction 0.000000 -1.000000 0.000000
      length 14.435119
      axis 0.0 0.0 0.0 xyz
      dof rx ry rz
   end
   begin
      id 29
      name RightFoot
      direction 0.000000 -0.258819 0.965926
      length 4.938895
      axis 15.0 0.0 0.0 xyz
      dof rx ry rz
   end
   begin
      id 30
      name RightToeBase
      direction 0.000000 0.000000 1.000000
      length 2.952750
      axis 0.0 0.0 0.0 xyz
      dof rx ry rz
   end
:hierarchy
   begin
      root Spine_dum LeftUpLeg_dum RightUpLeg_dum
      Spine_dum Spine
      LeftUpLeg_dum LeftUpLeg
      RightUpLeg_dum RightUpLeg
      Spine Spine_dum1 Spine_dum2 Spine_dum3
      Spine_dum1 Head
      Spine_dum2 LeftShoulder
      Spine_dum3 RightShoulder
      LeftShoulder LeftArm
      LeftArm LeftForeArm
      LeftForeArm LeftHand
      LeftHand LeftHand_dum1 LeftHand_dum2
      LeftHand_dum1 LeftHandThumb1
      RightShoulder RightArm
      RightArm RightForeArm
      RightForeArm RightHand
      RightHand RightHand_dum1 RightHand_dum2
      RightHand_dum1 RightHandThumb1
      LeftUpLeg LeftLeg
      LeftLeg LeftFoot
      LeftFoot LeftToeBase
      RightUpLeg RightLeg
      RightLeg RightFoot
      RightFoot RightToeBase
   end

# File created by Blade
# Date/Time:  Tue Sep 23 19:18:47 2014
# Frame Rate: 120.000 fps
#------------------------------------------------------
:FULLY-SPECIFIED
:DEGREES
1192
root 0.210047 34.809378 0.513611 113.821387 8.191103 -35.563348
Spine -73.780093 -1.225052 30.394040
Head -11.467171 17.920679 41.560781
LeftShoulder -18.255320 33.414870 36.693857
LeftArm 99.273279 -57.625836 -116.360652
LeftForeArm 21.236423 0.000000 118.394291
LeftHand -70.432197 -0.000000 8.243571
LeftHandThumb1 -26.253704 0.000000 33.147579
RightShoulder -38.300980 -42.416428 -2.287753
RightArm 29.588929 52.781498 67.189888
RightForeArm 87.735064 -0.000000 -5.318162
RightHand 6.313528 0.000000 21.434848
RightHandThumb1 -24.326973 -0.000000 -32.862282
LeftUpLeg -119.506807 33.547373 -13.933427
LeftLeg -2.534678 -0.000000 0.000000
LeftFoot 1.261649 -13.551926 -10.845781
LeftToeBase 9.723074 -0.000000 -0.000000
RightUpLeg 7.142905 -0.044569 -30.751918
RightLeg 60.515689 -0.000000 -0.000000
RightFoot 33.596416 7.246330 2.491857
RightToeBase 34.946583 -0.000000 -0.000000
1193
root 0.189446 34.808777 0.533056 113.552261 8.258425 -35.526068
Spine -73.741993 -1.369828 30.396790
Head -10.918774 17.619769 41.524886
LeftShoulder -18.144970 33.479053 36.695593
LeftArm 99.231964 -57.526965 -116.242752
LeftForeArm 21.743769 0.000000 118.189028
LeftHand -70.707444 -0.000000 8.018030
LeftHandThumb1 -26.253704 0.000000 33.147579
RightShoulder -38.434134 -42.536800 -2.173223
RightArm 29.856722 52.801795 67.632927
RightForeArm 87.820676 -0.000000 -5.141199
RightHand 6.393308 -0.000000 21.534379
RightHandThumb1 -24.326973 -0.000000 -32.862282
LeftUpLeg -119.229700 33.503970 -14.002988
LeftLeg -2.768333 -0.000000 0.000000
LeftFoot 1.380800 -13.583317 -11.320171
LeftToeBase 9.563221 -0.000000 -0.000000
RightUpLeg 7.192907 -0.232383 -30.786693
RightLeg 60.674615 -0.000000 -0.000000
RightFoot 33.527255 7.016659 2.803833
RightToeBase 35.120545 -0.000000 -0.000000
1194
root 0.174414 34.811696 0.556892 113.354255 8.283911 -35.547235
Spine -73.765359 -1.436949 30.375423
Head -10.351277 17.290574 41.469022
LeftShoulder -18.061951 33.449577 36.709109
LeftArm 98.843926 -57.445737 -115.841877
LeftForeArm 22.106671 -0.000000 118.008867
LeftHand -70.746729 -0.000000 8.226268
LeftHandThumb1 -26.253704 0.000000 33.147579
RightShoulder -38.505421 -42.590335 -2.133670
RightArm 30.011305 52.778681 67.943911
RightForeArm 87.774839 -0.000000 -4.914933
RightHand 6.396798 -0.000000 21.390454
RightHandThumb1 -24.326973 -0.000000 -32.862282
LeftUpLeg -119.101876 33.370128 -14.362126
LeftLeg -3.052618 -0.000000 0.000000
LeftFoot 1.517812 -13.741831 -11.715553
LeftToeBase 9.120127 -0.000000 -0.000000
RightUpLeg 7.118783 -0.352711 -30.875355
RightLeg 60.826734 -0.000000 -0.000000
RightFoot 33.620562 7.163682 2.948294
RightToeBase 34.993598 -0.000000 -0.000000
1195
root 0.156391 34.813681 0.582887 113.083826 8.285467 -35.616800
Spine -73.738365 -1.517096 30.367445
Head -9.734067 17.044713 41.422628
LeftShoulder -17.974379 33.487668 36.708844
LeftArm 98.541667 -57.396555 -115.579779
LeftForeArm 22.410233 -0.000000 117.900506
LeftHand -70.797421 0.000000 8.015911
LeftHandThumb1 -26.253704 0.000000 33.147579
RightShoulder -38.541036 -42.738902 -2.091609
RightArm 30.293034 52.745150 68.337872
RightForeArm 87.836083 -0.000000 -4.701237
RightHand 6.417148 -0.000000 21.306247
RightHandThumb1 -24.326973 -0.000000 -32.862282
LeftUpLeg -118.960464 33.228034 -14.861715
LeftLeg -3.378581 -0.000000 0.000000
LeftFoot 1.720404 -13.957065 -12.127945
LeftToeBase 8.739640 -0.000000 -0.000000
RightUpLeg 7.103867 -0.378885 -30.988128
RightLeg 60.911244 -0.000000 -0.000000
RightFoot 33.657994 7.396012 3.025478
RightToeBase 34.873730 -0.000000 -0.000000
1196
root 0.137181 34.818820 0.611026 112.850977 8.290924 -35.755060
Spine -73.731404 -1.512322 30.335065
Head -9.160885 16.752708 41.300389
LeftShoulder -17.860484 33.506386 36.706348
LeftArm 98.194949 -57.417919 -115.237867
LeftForeArm 22.564650 -0.000000 117.834428
LeftHand -70.946400 0.000000 7.994958
LeftHandThumb1 -26.253704 0.000000 33.147579
RightShoulder -38.606605 -42.856637 -2.036732
RightArm 30.559845 52.613364 68.595408
RightForeArm 87.862650 -0.000000 -4.588893
RightHand 6.481928 -0.000000 21.164145
RightHandThumb1 -24.326973 -0.000000 -32.862282
LeftUpLeg -118.905317 33.109941 -15.458288
LeftLeg -3.707111 -0.000000 0.000000
LeftFoot 1.851305 -14.175373 -12.374394
LeftToeBase 8.221930 -0.000000 -0.000000
RightUpLeg 7.026083 -0.331026 -31.080494
RightLeg 60.952832 -0.000000 -0.000000
RightFoot 33.597129 7.525137 3.221185
RightToeBase 34.960384 -0.000000 -0.000000
